<svg xmlns="http://www.w3.org/2000/svg" width="28" height="28" viewBox="0 0 28 28" fill="none">
  <circle cx="14" cy="14" r="14" fill="#FFFBFF"/>
  <mask id="mask0_1_1091" style="mask-type:alpha" maskUnits="userSpaceOnUse" x="6" y="6" width="16" height="16">
    <rect x="6" y="6" width="16" height="16" fill="#D9D9D9"/>
  </mask>
  <g mask="url(#mask0_1_1091)">
    <path d="M9.33333 20.6667C8.96667 20.6667 8.65267 20.5362 8.39133 20.2753C8.13044 20.014 8 19.7 8 19.3333V10C8 9.63333 8.13044 9.31955 8.39133 9.05867C8.65267 8.79733 8.96667 8.66667 9.33333 8.66667H10V7.33333H11.3333V8.66667H16.6667V7.33333H18V8.66667H18.6667C19.0333 8.66667 19.3473 8.79733 19.6087 9.05867C19.8696 9.31955 20 9.63333 20 10V19.3333C20 19.7 19.8696 20.014 19.6087 20.2753C19.3473 20.5362 19.0333 20.6667 18.6667 20.6667H9.33333ZM9.33333 19.3333H18.6667V12.6667H9.33333V19.3333ZM9.33333 11.3333H18.6667V10H9.33333V11.3333ZM14 15.3333C13.8111 15.3333 13.6529 15.2693 13.5253 15.1413C13.3973 15.0138 13.3333 14.8556 13.3333 14.6667C13.3333 14.4778 13.3973 14.3193 13.5253 14.1913C13.6529 14.0638 13.8111 14 14 14C14.1889 14 14.3473 14.0638 14.4753 14.1913C14.6029 14.3193 14.6667 14.4778 14.6667 14.6667C14.6667 14.8556 14.6029 15.0138 14.4753 15.1413C14.3473 15.2693 14.1889 15.3333 14 15.3333ZM11.3333 15.3333C11.1444 15.3333 10.986 15.2693 10.858 15.1413C10.7304 15.0138 10.6667 14.8556 10.6667 14.6667C10.6667 14.4778 10.7304 14.3193 10.858 14.1913C10.986 14.0638 11.1444 14 11.3333 14C11.5222 14 11.6807 14.0638 11.8087 14.1913C11.9362 14.3193 12 14.4778 12 14.6667C12 14.8556 11.9362 15.0138 11.8087 15.1413C11.6807 15.2693 11.5222 15.3333 11.3333 15.3333ZM16.6667 15.3333C16.4778 15.3333 16.3196 15.2693 16.192 15.1413C16.064 15.0138 16 14.8556 16 14.6667C16 14.4778 16.064 14.3193 16.192 14.1913C16.3196 14.0638 16.4778 14 16.6667 14C16.8556 14 17.0138 14.0638 17.1413 14.1913C17.2693 14.3193 17.3333 14.4778 17.3333 14.6667C17.3333 14.8556 17.2693 15.0138 17.1413 15.1413C17.0138 15.2693 16.8556 15.3333 16.6667 15.3333ZM14 18C13.8111 18 13.6529 17.936 13.5253 17.808C13.3973 17.6804 13.3333 17.5222 13.3333 17.3333C13.3333 17.1444 13.3973 16.9862 13.5253 16.8587C13.6529 16.7307 13.8111 16.6667 14 16.6667C14.1889 16.6667 14.3473 16.7307 14.4753 16.8587C14.6029 16.9862 14.6667 17.1444 14.6667 17.3333C14.6667 17.5222 14.6029 17.6804 14.4753 17.808C14.3473 17.936 14.1889 18 14 18ZM11.3333 18C11.1444 18 10.986 17.936 10.858 17.808C10.7304 17.6804 10.6667 17.5222 10.6667 17.3333C10.6667 17.1444 10.7304 16.9862 10.858 16.8587C10.986 16.7307 11.1444 16.6667 11.3333 16.6667C11.5222 16.6667 11.6807 16.7307 11.8087 16.8587C11.9362 16.9862 12 17.1444 12 17.3333C12 17.5222 11.9362 17.6804 11.8087 17.808C11.6807 17.936 11.5222 18 11.3333 18ZM16.6667 18C16.4778 18 16.3196 17.936 16.192 17.808C16.064 17.6804 16 17.5222 16 17.3333C16 17.1444 16.064 16.9862 16.192 16.8587C16.3196 16.7307 16.4778 16.6667 16.6667 16.6667C16.8556 16.6667 17.0138 16.7307 17.1413 16.8587C17.2693 16.9862 17.3333 17.1444 17.3333 17.3333C17.3333 17.5222 17.2693 17.6804 17.1413 17.808C17.0138 17.936 16.8556 18 16.6667 18Z" fill="#1C1B1F"/>
  </g>
</svg>