<svg xmlns="http://www.w3.org/2000/svg" width="28" height="28" viewBox="0 0 28 28" fill="none">
  <circle cx="14" cy="14" r="14" fill="#FFFBFF"/>
  <mask id="mask0_1_765" style="mask-type:alpha" maskUnits="userSpaceOnUse" x="6" y="6" width="16" height="16">
    <rect x="6" y="6" width="16" height="16" fill="#D9D9D9"/>
  </mask>
  <g mask="url(#mask0_1_765)">
    <path d="M16.2 17.1333L13.3334 14.2667V10.6667H14.6667V13.7333L17.1334 16.2L16.2 17.1333ZM7.90003 16.7167C7.75559 16.3944 7.63892 16.0611 7.55003 15.7167C7.46114 15.3722 7.40003 15.0222 7.3667 14.6667H8.7167C8.75003 14.9 8.79714 15.1333 8.85803 15.3667C8.91937 15.6 8.99448 15.8278 9.08337 16.05L7.90003 16.7167ZM7.3667 13.3333C7.40003 12.9778 7.46114 12.6249 7.55003 12.2747C7.63892 11.9249 7.76114 11.5889 7.9167 11.2667L9.08337 11.9333C8.99448 12.1556 8.91937 12.3833 8.85803 12.6167C8.79714 12.85 8.75003 13.0889 8.7167 13.3333H7.3667ZM10.1167 19.4333C9.8167 19.2111 9.53892 18.9693 9.28337 18.708C9.02781 18.4471 8.78892 18.1667 8.5667 17.8667L9.73337 17.2C9.88892 17.4 10.0529 17.586 10.2254 17.758C10.3974 17.9304 10.5834 18.0944 10.7834 18.25L10.1167 19.4333ZM9.75003 10.7833L8.5667 10.1167C8.78892 9.81667 9.02781 9.53889 9.28337 9.28334C9.53892 9.02778 9.8167 8.78889 10.1167 8.56667L10.7834 9.75C10.5945 9.90556 10.414 10.0693 10.242 10.2413C10.0696 10.4138 9.90559 10.5944 9.75003 10.7833ZM13.3334 20.6333C12.9778 20.6 12.6251 20.5389 12.2754 20.45C11.9251 20.3611 11.5889 20.2389 11.2667 20.0833L11.9334 18.9167C12.1556 19.0056 12.3834 19.0804 12.6167 19.1413C12.85 19.2027 13.0889 19.25 13.3334 19.2833V20.6333ZM11.9334 9.08334L11.2667 7.91667C11.5889 7.76111 11.9251 7.63889 12.2754 7.55C12.6251 7.46111 12.9778 7.4 13.3334 7.36667V8.71667C13.0889 8.75 12.85 8.79711 12.6167 8.858C12.3834 8.91934 12.1556 8.99445 11.9334 9.08334ZM14.6667 20.6333V19.2833C14.9111 19.25 15.15 19.2027 15.3834 19.1413C15.6167 19.0804 15.8445 19.0056 16.0667 18.9167L16.7334 20.0833C16.4111 20.2389 16.0751 20.3611 15.7254 20.45C15.3751 20.5389 15.0223 20.6 14.6667 20.6333ZM16.0667 9.08334C15.8445 8.99445 15.6167 8.91934 15.3834 8.858C15.15 8.79711 14.9111 8.75 14.6667 8.71667V7.36667C15.0223 7.4 15.3751 7.46111 15.7254 7.55C16.0751 7.63889 16.4111 7.76111 16.7334 7.91667L16.0667 9.08334ZM17.8834 19.4333L17.2167 18.25C17.4056 18.0944 17.5863 17.9304 17.7587 17.758C17.9307 17.586 18.0945 17.4056 18.25 17.2167L19.4334 17.8833C19.2111 18.1833 18.9723 18.4638 18.7167 18.7247C18.4611 18.986 18.1834 19.2222 17.8834 19.4333ZM18.25 10.7833C18.0945 10.5944 17.9307 10.4138 17.7587 10.2413C17.5863 10.0693 17.4056 9.90556 17.2167 9.75L17.8834 8.56667C18.1834 8.77778 18.4611 9.01111 18.7167 9.26667C18.9723 9.52222 19.2056 9.8 19.4167 10.1L18.25 10.7833ZM19.2834 13.3333C19.25 13.0889 19.2029 12.85 19.142 12.6167C19.0807 12.3833 19.0056 12.1556 18.9167 11.9333L20.0834 11.25C20.2278 11.5833 20.3474 11.9249 20.442 12.2747C20.5363 12.6249 20.6 12.9778 20.6334 13.3333H19.2834ZM20.0834 16.7333L18.9167 16.0667C19.0056 15.8444 19.0807 15.6167 19.142 15.3833C19.2029 15.15 19.25 14.9111 19.2834 14.6667H20.6334C20.6 15.0222 20.5389 15.3749 20.45 15.7247C20.3611 16.0749 20.2389 16.4111 20.0834 16.7333Z" fill="#1C1B1F"/>
  </g>
</svg>