<svg xmlns="http://www.w3.org/2000/svg" width="28" height="28" viewBox="0 0 28 28" fill="none">
  <circle cx="14" cy="14" r="14" fill="#FFFBFF"/>
  <mask id="mask0_1_1113" style="mask-type:alpha" maskUnits="userSpaceOnUse" x="6" y="6" width="16" height="16">
    <rect x="6" y="6" width="16" height="16" fill="#D9D9D9"/>
  </mask>
  <g mask="url(#mask0_1_1113)">
    <path d="M14.7334 21.3333H13L13.3334 21.1253C13.5556 20.9862 13.7974 20.8307 14.0587 20.6587C14.3196 20.4862 14.5611 20.3307 14.7834 20.192L15.1167 19.9833C16.0167 19.9167 16.8474 19.6444 17.6087 19.1667C18.3696 18.6889 18.9722 18.05 19.4167 17.25C18.4611 17.1611 17.5556 16.9196 16.7 16.5253C15.8445 16.1307 15.0778 15.5944 14.4 14.9167C13.7222 14.2389 13.1834 13.4722 12.7834 12.6167C12.3834 11.7611 12.1445 10.8556 12.0667 9.9C11.2111 10.3778 10.5418 11.036 10.0587 11.8747C9.57513 12.7138 9.33335 13.6222 9.33335 14.6V14.8L9.13335 14.8913C9.00002 14.9527 8.85291 15.0167 8.69202 15.0833C8.53069 15.15 8.38335 15.2138 8.25002 15.2747L8.05002 15.3667C8.0278 15.2444 8.01402 15.1167 8.00869 14.9833C8.00291 14.85 8.00002 14.7222 8.00002 14.6C8.00002 12.9778 8.51669 11.5471 9.55002 10.308C10.5834 9.06933 11.9 8.3 13.5 8C13.3 9.1 13.3611 10.1749 13.6834 11.2247C14.0056 12.2749 14.5611 13.1944 15.35 13.9833C16.1389 14.7722 17.0585 15.3278 18.1087 15.65C19.1585 15.9722 20.2334 16.0333 21.3334 15.8333C21.0445 17.4333 20.2778 18.75 19.0334 19.7833C17.7889 20.8167 16.3556 21.3333 14.7334 21.3333ZM10 20H13C13.2778 20 13.5138 19.9027 13.708 19.708C13.9027 19.5138 14 19.2778 14 19C14 18.7222 13.9056 18.4862 13.7167 18.292C13.5278 18.0973 13.3 18 13.0334 18H12.1667L11.8334 17.2C11.6778 16.8333 11.4334 16.5418 11.1 16.3253C10.7667 16.1084 10.4 16 10 16C9.44446 16 8.97224 16.1918 8.58335 16.5753C8.19446 16.9584 8.00002 17.4333 8.00002 18C8.00002 18.5556 8.19446 19.0278 8.58335 19.4167C8.97224 19.8056 9.44446 20 10 20ZM10 21.3333C9.0778 21.3333 8.2918 21.0084 7.64202 20.3587C6.9918 19.7084 6.66669 18.9222 6.66669 18C6.66669 17.0778 6.9918 16.2916 7.64202 15.6413C8.2918 14.9916 9.0778 14.6667 10 14.6667C10.6667 14.6667 11.2751 14.8471 11.8254 15.208C12.3751 15.5693 12.7834 16.0556 13.05 16.6667C13.6834 16.6889 14.2222 16.9249 14.6667 17.3747C15.1111 17.8249 15.3334 18.3667 15.3334 19C15.3334 19.6444 15.1056 20.1944 14.65 20.65C14.1945 21.1056 13.6445 21.3333 13 21.3333H10Z" fill="#1C1B1F"/>
  </g>
</svg>