<svg xmlns="http://www.w3.org/2000/svg" width="28" height="28" viewBox="0 0 28 28" fill="none">
  <circle cx="14" cy="14" r="14" fill="#FFFBFF"/>
  <mask id="mask0_1_1152" style="mask-type:alpha" maskUnits="userSpaceOnUse" x="6" y="6" width="16" height="16">
    <rect x="6" y="6" width="16" height="16" fill="#D9D9D9"/>
  </mask>
  <g mask="url(#mask0_1_1152)">
    <mask id="mask1_1_1152" style="mask-type:alpha" maskUnits="userSpaceOnUse" x="6" y="6" width="17" height="17">
      <rect x="6.00171" y="6.13177" width="16" height="16" fill="#D9D9D9"/>
    </mask>
    <g mask="url(#mask1_1_1152)">
      <path d="M17.4684 16.1818C17.3017 16.1151 17.1795 15.9956 17.1017 15.8231C17.0239 15.6511 17.0184 15.4818 17.085 15.3151C17.1628 15.1262 17.2184 14.9289 17.2517 14.7231C17.285 14.5178 17.3017 14.2818 17.3017 14.0151C17.3017 13.1818 16.985 12.44 16.3517 11.7898C15.7184 11.14 14.9684 10.8151 14.1017 10.8151C13.8795 10.8151 13.6602 10.8318 13.4437 10.8651C13.2268 10.8984 13.0128 10.9596 12.8017 11.0484C12.6239 11.1262 12.4517 11.1262 12.285 11.0484C12.1184 10.9707 12.0017 10.8429 11.935 10.6651C11.8684 10.4873 11.8713 10.3151 11.9437 10.1484C12.0157 9.98178 12.1406 9.86511 12.3184 9.79844C12.6073 9.68733 12.8962 9.60666 13.185 9.55644C13.4739 9.50666 13.7795 9.48178 14.1017 9.48178C15.3573 9.48178 16.4266 9.92622 17.3097 10.8151C18.1933 11.704 18.635 12.7707 18.635 14.0151C18.635 14.3707 18.6157 14.6873 18.577 14.9651C18.5379 15.2429 18.4628 15.5262 18.3517 15.8151C18.285 15.9818 18.1657 16.0984 17.9937 16.1651C17.8213 16.2318 17.6462 16.2373 17.4684 16.1818ZM14.0017 18.7984C12.7017 18.7984 11.599 18.3456 10.6937 17.4398C9.78793 16.5344 9.33504 15.4318 9.33504 14.1318C9.33504 13.6762 9.40438 13.218 9.54304 12.7571C9.68215 12.2958 9.89615 11.8596 10.185 11.4484C10.2406 11.3596 10.3157 11.29 10.4104 11.2398C10.5046 11.19 10.6017 11.1651 10.7017 11.1651C10.8239 11.154 10.9435 11.1818 11.0604 11.2484C11.1768 11.3151 11.2628 11.404 11.3184 11.5151C11.9406 12.6484 12.7017 13.6622 13.6017 14.5564C14.5017 15.4511 15.5184 16.1984 16.6517 16.7984C16.7517 16.854 16.8322 16.9289 16.893 17.0231C16.9544 17.1178 16.9906 17.2262 17.0017 17.3484C17.0128 17.4596 16.9906 17.5651 16.935 17.6651C16.8795 17.7651 16.8073 17.8484 16.7184 17.9151C16.3073 18.204 15.8713 18.4236 15.4104 18.5738C14.949 18.7236 14.4795 18.7984 14.0017 18.7984ZM14.0017 17.4651C14.1573 17.4651 14.3102 17.4567 14.4604 17.4398C14.6102 17.4233 14.7684 17.3873 14.935 17.3318C14.1017 16.7984 13.3406 16.1873 12.6517 15.4984C11.9628 14.8096 11.3462 14.054 10.8017 13.2318C10.7573 13.3873 10.7239 13.5373 10.7017 13.6818C10.6795 13.8262 10.6684 13.9762 10.6684 14.1318C10.6684 15.0762 10.999 15.8651 11.6604 16.4984C12.3213 17.1318 13.1017 17.454 14.0017 17.4651ZM14.0017 8.13177C13.8128 8.13177 13.6546 8.06777 13.527 7.93977C13.399 7.81222 13.335 7.654 13.335 7.46511V6.79844C13.335 6.60955 13.399 6.45111 13.527 6.32311C13.6546 6.19555 13.8128 6.13177 14.0017 6.13177C14.1906 6.13177 14.349 6.19555 14.477 6.32311C14.6046 6.45111 14.6684 6.60955 14.6684 6.79844V7.46511C14.6684 7.654 14.6046 7.81222 14.477 7.93977C14.349 8.06777 14.1906 8.13177 14.0017 8.13177ZM14.0017 22.1318C13.8128 22.1318 13.6546 22.0678 13.527 21.9398C13.399 21.8122 13.335 21.654 13.335 21.4651V20.7984C13.335 20.6096 13.399 20.4513 13.527 20.3238C13.6546 20.1958 13.8128 20.1318 14.0017 20.1318C14.1906 20.1318 14.349 20.1958 14.477 20.3238C14.6046 20.4513 14.6684 20.6096 14.6684 20.7984V21.4651C14.6684 21.654 14.6046 21.8122 14.477 21.9398C14.349 22.0678 14.1906 22.1318 14.0017 22.1318ZM18.235 9.88177C18.1017 9.74844 18.035 9.59 18.035 9.40644C18.035 9.22333 18.1017 9.06511 18.235 8.93177L18.7017 8.46511C18.835 8.33177 18.9962 8.26511 19.185 8.26511C19.3739 8.26511 19.535 8.33177 19.6684 8.46511C19.8017 8.59844 19.8657 8.75666 19.8604 8.93977C19.8546 9.12333 19.785 9.28178 19.6517 9.41511L19.185 9.88177C19.0517 10.0151 18.8933 10.0818 18.7097 10.0818C18.5266 10.0818 18.3684 10.0151 18.235 9.88177ZM8.35171 19.7818C8.21838 19.6484 8.15171 19.4902 8.15171 19.3071C8.15171 19.1236 8.21838 18.9651 8.35171 18.8318L8.81838 18.3651C8.9406 18.2429 9.0906 18.1818 9.26838 18.1818C9.44615 18.1818 9.60171 18.2429 9.73504 18.3651C9.86838 18.4873 9.9406 18.6429 9.95171 18.8318C9.96282 19.0207 9.90171 19.1818 9.76838 19.3151L9.30171 19.7818C9.16838 19.9151 9.01015 19.9818 8.82704 19.9818C8.64349 19.9818 8.48504 19.9151 8.35171 19.7818ZM20.6684 14.7984C20.4795 14.7984 20.3213 14.7344 20.1937 14.6064C20.0657 14.4789 20.0017 14.3207 20.0017 14.1318C20.0017 13.9429 20.0657 13.7844 20.1937 13.6564C20.3213 13.5289 20.4795 13.4651 20.6684 13.4651H21.335C21.5239 13.4651 21.6822 13.5289 21.8097 13.6564C21.9377 13.7844 22.0017 13.9429 22.0017 14.1318C22.0017 14.3207 21.9377 14.4789 21.8097 14.6064C21.6822 14.7344 21.5239 14.7984 21.335 14.7984H20.6684ZM6.66838 14.7984C6.47949 14.7984 6.32126 14.7344 6.19371 14.6064C6.06571 14.4789 6.00171 14.3207 6.00171 14.1318C6.00171 13.9429 6.06571 13.7844 6.19371 13.6564C6.32126 13.5289 6.47949 13.4651 6.66838 13.4651H7.33504C7.52393 13.4651 7.68238 13.5289 7.81038 13.6564C7.93793 13.7844 8.00171 13.9429 8.00171 14.1318C8.00171 14.3207 7.93793 14.4789 7.81038 14.6064C7.68238 14.7344 7.52393 14.7984 7.33504 14.7984H6.66838ZM18.7017 19.7818L18.235 19.3151C18.1128 19.1929 18.0517 19.0429 18.0517 18.8651C18.0517 18.6873 18.1128 18.5318 18.235 18.3984C18.3573 18.2651 18.5128 18.1929 18.7017 18.1818C18.8906 18.1707 19.0517 18.2318 19.185 18.3651L19.6517 18.8318C19.785 18.9651 19.849 19.1207 19.8437 19.2984C19.8379 19.4762 19.7739 19.6318 19.6517 19.7651C19.5295 19.8984 19.3739 19.9678 19.185 19.9731C18.9962 19.9789 18.835 19.9151 18.7017 19.7818ZM8.81838 9.88177L8.35171 9.41511C8.21838 9.28178 8.15438 9.12889 8.15971 8.95644C8.16549 8.78444 8.22949 8.63177 8.35171 8.49844C8.47393 8.36511 8.62949 8.29289 8.81838 8.28177C9.00726 8.27066 9.16838 8.33177 9.30171 8.46511L9.76838 8.93177C9.90171 9.06511 9.96838 9.22333 9.96838 9.40644C9.96838 9.59 9.90171 9.74844 9.76838 9.88177C9.63504 10.0151 9.47682 10.0818 9.29371 10.0818C9.11015 10.0818 8.95171 10.0151 8.81838 9.88177Z" fill="#1C1B1F"/>
    </g>
  </g>
</svg>