<svg width="28" height="28" viewBox="0 0 28 28" fill="none" xmlns="http://www.w3.org/2000/svg">
<g id="Group 14">
<circle id="background" cx="14" cy="14" r="14" fill="#FFFBFF"/>
<g id="air">
<mask id="mask0_1_716" style="mask-type:alpha" maskUnits="userSpaceOnUse" x="6" y="6" width="16" height="16">
<rect id="Bounding box" x="6" y="6" width="16" height="16" fill="#D9D9D9"/>
</mask>
<g mask="url(#mask0_1_716)">
<path id="air_2" d="M13.6667 19.3333C13.1111 19.3333 12.6389 19.1389 12.25 18.75C11.8611 18.3611 11.6667 17.8889 11.6667 17.3333H13C13 17.5222 13.064 17.6804 13.192 17.808C13.3196 17.936 13.4778 18 13.6667 18C13.8556 18 14.014 17.936 14.142 17.808C14.2696 17.6804 14.3333 17.5222 14.3333 17.3333C14.3333 17.1444 14.2696 16.9862 14.142 16.8587C14.014 16.7307 13.8556 16.6667 13.6667 16.6667H7.33333V15.3333H13.6667C14.2222 15.3333 14.6944 15.5278 15.0833 15.9167C15.4722 16.3056 15.6667 16.7778 15.6667 17.3333C15.6667 17.8889 15.4722 18.3611 15.0833 18.75C14.6944 19.1389 14.2222 19.3333 13.6667 19.3333ZM7.33333 12.6667V11.3333H16.3333C16.6222 11.3333 16.8611 11.2389 17.05 11.05C17.2389 10.8611 17.3333 10.6222 17.3333 10.3333C17.3333 10.0444 17.2389 9.80556 17.05 9.61667C16.8611 9.42778 16.6222 9.33333 16.3333 9.33333C16.0444 9.33333 15.8055 9.42778 15.6167 9.61667C15.4278 9.80556 15.3333 10.0444 15.3333 10.3333H14C14 9.67778 14.2249 9.12489 14.6747 8.67467C15.1249 8.22489 15.6778 8 16.3333 8C16.9889 8 17.5418 8.22489 17.992 8.67467C18.4418 9.12489 18.6667 9.67778 18.6667 10.3333C18.6667 10.9889 18.4418 11.5416 17.992 11.9913C17.5418 12.4416 16.9889 12.6667 16.3333 12.6667H7.33333ZM18.3333 18V16.6667C18.6222 16.6667 18.8611 16.5722 19.05 16.3833C19.2389 16.1944 19.3333 15.9556 19.3333 15.6667C19.3333 15.3778 19.2389 15.1389 19.05 14.95C18.8611 14.7611 18.6222 14.6667 18.3333 14.6667H7.33333V13.3333H18.3333C18.9889 13.3333 19.5418 13.5582 19.992 14.008C20.4418 14.4582 20.6667 15.0111 20.6667 15.6667C20.6667 16.3222 20.4418 16.8751 19.992 17.3253C19.5418 17.7751 18.9889 18 18.3333 18Z" fill="#1C1B1F"/>
</g>
</g>
</g>
</svg>
